<svg height="512pt" viewBox="0 -47 512.00027 512" width="512pt" xmlns="http://www.w3.org/2000/svg"><path d="m502.992188 261.003906c-10.679688-12.742187-28.234376-17.179687-43.6875-11.03125l-11.238282 4.46875c-20.398437-42.863281-63.027344-73.167968-112.886718-75.953125v-94.441406c5.382812 2.707031 11.167968 4.644531 17.007812 5.671875 4.082031.71875 8.148438 1.074219 12.167969 1.074219 16.160156 0 31.570312-5.746094 44.316406-16.707031 14.34375-12.332032 24.589844-30.832032 28.113281-50.761719.554688-3.136719-.933594-6.277344-3.707031-7.84375-17.628906-9.933594-38.425781-13.773438-57.058594-10.527344-16.457031 2.863281-30.589843 11.042969-40.839843 23.390625v-20.839844c0-4.144531-3.359376-7.503906-7.5-7.503906-4.144532 0-7.503907 3.359375-7.503907 7.503906v62.535156.035157.035156 12.140625c-6.511719-8.980469-14.613281-16.230469-24.195312-21.597656-3.617188-2.023438-8.1875-.734375-10.214844 2.878906-2.023437 3.613281-.734375 8.1875 2.878906 10.210938 9.8125 5.496093 17.730469 13.492187 23.53125 23.761718 3.414063 6.046875 5.699219 12.933594 6.617188 19.9375.019531.390625.03125 1.109375.050781 1.953125.023438 1.003907.046875 1.9375.074219 2.796875-.6875.527344-1.421875 1.101563-2.214844 1.726563-.664063.519531-1.222656.964843-1.535156 1.199219-5.988281 3.734374-12.761719 6.34375-19.601563 7.546874-30.703125 5.40625-67.589844-13.308593-78.003906-58.324218 12.921875-6.28125 27.242188-9.398438 40.886719-8.835938 4.179687.179688 7.632812-3.046875 7.804687-7.1875s-3.046875-7.636718-7.1875-7.804687c-18.101562-.746094-37.152344 3.964843-53.660156 13.269531-2.773438 1.5625-4.257812 4.707031-3.703125 7.839844 4.027344 22.78125 15.730469 43.925781 32.113281 58.011718 14.527344 12.488282 32.074219 19.03125 50.484375 19.03125 4.578125 0 9.210938-.402343 13.863281-1.222656 7.617188-1.339844 15.15625-4.046875 22.011719-7.871094v38.910157c-44.699219 2.496093-83.578125 27.125-105.847656 63.082031-1.566406-.160156-3.136719-.28125-4.714844-.339844-.941406-.039062-1.882812-.054687-2.828125-.054687h-39.222656c-2.210938-4.191407-6.605469-7.058594-11.664062-7.058594h-27.09375v-.300781c0-7.414063-6.027344-13.445313-13.441407-13.445313h-32.59375c-4.144531 0-7.503906 3.359375-7.503906 7.503907 0 4.144531 3.359375 7.5 7.503906 7.5h31.03125v153.96875h-98.796875v-153.964844h33.421875c4.140625 0 7.5-3.359375 7.5-7.503906 0-4.140626-3.359375-7.5-7.5-7.5h-34.984375c-7.410156 0-13.441406 6.027343-13.441406 13.441406v157.089844c0 7.414062 6.03125 13.441406 13.441406 13.441406h101.921875c7.414063 0 13.445313-6.027344 13.445313-13.441406v-.304688h27.089844c5.007812 0 9.367187-2.800781 11.601562-6.921875 37.789062 21.433594 102.632812 29.84375 140.078125 33.019531 3.621094.308594 7.25.460938 10.882813.460938 15.539062 0 31.046874-2.796875 45.394531-8.234375 60.542969-22.949219 112.019531-70.304688 137.316406-96.488281 13.710937-14.195313 14.492187-36.300782 1.820313-51.425782zm-167.5-196.515625c.019531-.691406.027343-1.285156.042968-1.628906.78125-5.910156 2.710938-11.722656 5.597656-16.828125 12.9375-22.910156 44.8125-36.957031 79.765626-20-9.101563 37.773438-40.210938 53.46875-66.113282 48.910156-5.773437-1.015625-11.488281-3.214844-16.550781-6.363281-.273437-.210937-.738281-.574219-1.285156-1.003906-.527344-.414063-1.027344-.804688-1.503907-1.175781.019532-.601563.03125-1.238282.046876-1.910157zm-181.410157 306.398438v4.703125h-25.273437v-126.472656h25.273437zm173.597657-177.625c46.746093 0 87.226562 27.28125 106.40625 66.746093l-53.308594 21.207032c-9.910156 3.941406-20.96875 4.359375-31.144532 1.175781l-119.59375-37.5c21.316407-31.148437 57.128907-51.628906 97.640626-51.628906zm162.699218 108.742187c-24.425781 25.28125-74.03125 70.96875-131.839844 92.882813-15.613281 5.917969-32.796874 8.289062-49.691406 6.855469-88.335937-7.492188-125.835937-25.4375-139.761718-34.730469v-110.835938h37.699218c6.03125 0 12.003906.914063 17.757813 2.71875l120.5625 37.800781.253906.078126c8.367187 2.585937 13.542969 10.902343 12.042969 19.339843l-.175782.988281c-1.539062 8.652344-9.613281 14.789063-18.351562 13.964844l-99.730469-9.371094c-4.125-.382812-7.785156 2.644532-8.171875 6.769532-.386718 4.125 2.640625 7.78125 6.765625 8.171875l99.734375 9.371093c.992188.089844 1.976563.136719 2.957032.136719 15.289062 0 28.847656-11.113281 31.570312-26.414062l.175781-.988281c1.21875-6.839844.121094-13.625-2.765625-19.523438 5.773438-.550781 11.476563-1.898438 16.914063-4.0625l78.527343-31.238281c9.421876-3.75 20.128907-1.046875 26.644532 6.726562 7.722656 9.21875 7.246094 22.703125-1.117188 31.359375zm0 0" fill="#50ff71"/></svg>